<svg width="288" height="96" viewBox="0 0 288 96" fill="none" xmlns="http://www.w3.org/2000/svg">
<path d="M55.104 67.968L52.896 64.8C50.592 66.144 48.128 67.2 45.504 67.968C42.944 68.672 40.256 69.024 37.44 69.024C33.28 69.024 29.376 68.224 25.728 66.624C22.08 64.96 18.912 62.752 16.224 60C13.472 57.312 11.296 54.112 9.696 50.4C8.096 46.688 7.296 42.752 7.296 38.592C7.296 34.368 8.096 30.4 9.696 26.688C11.296 22.912 13.472 19.648 16.224 16.896C18.976 14.08 22.176 11.872 25.824 10.272C29.472 8.608 33.408 7.776 37.632 7.776C40.064 7.776 42.432 8.096 44.736 8.736C47.104 9.312 49.344 10.144 51.456 11.232V19.584H55.2V8.832C52.576 7.296 49.792 6.112 46.848 5.27999C43.968 4.448 40.896 4.032 37.632 4.032C32.896 4.032 28.448 4.96 24.288 6.816C20.128 8.608 16.512 11.04 13.44 14.112C10.304 17.248 7.84 20.928 6.048 25.152C4.256 29.312 3.36 33.76 3.36 38.496C3.36 43.232 4.256 47.68 6.048 51.84C7.84 56 10.304 59.616 13.44 62.688C16.512 65.824 20.128 68.288 24.288 70.08C28.448 71.872 32.896 72.768 37.632 72.768C40.896 72.768 43.968 72.352 46.848 71.52C49.792 70.624 52.544 69.44 55.104 67.968ZM106.882 72V68.256H99.7778V36H96.6098C96.4818 37.408 96.3858 38.848 96.3218 40.32C96.2578 41.728 96.2258 43.104 96.2258 44.448C95.1378 41.952 93.2498 39.808 90.5618 38.016C87.8738 36.16 84.6418 35.232 80.8658 35.232C78.1778 35.232 75.6818 35.744 73.3778 36.768C71.1378 37.728 69.1538 39.04 67.4258 40.704C65.6978 42.432 64.3538 44.448 63.3938 46.752C62.4338 49.056 61.9538 51.456 61.9538 53.952C61.9538 56.576 62.4338 59.008 63.3938 61.248C64.3538 63.488 65.6978 65.472 67.4258 67.2C69.1538 68.928 71.1378 70.272 73.3778 71.232C75.6818 72.192 78.1778 72.672 80.8658 72.672C82.7858 72.672 84.5778 72.416 86.2418 71.904C87.9698 71.392 89.5058 70.688 90.8498 69.792C92.1298 68.96 93.2178 68.032 94.1138 67.008C95.0738 65.92 95.7778 64.8 96.2258 63.648C96.2258 64.48 96.2258 65.248 96.2258 65.952C96.2258 66.592 96.2258 67.296 96.2258 68.064V72H106.882ZM80.8658 39.072C82.9138 39.072 84.8338 39.456 86.6258 40.224C88.4178 40.928 90.0178 41.952 91.4258 43.296C92.7698 44.64 93.8258 46.24 94.5938 48.096C95.4258 49.888 95.8418 51.84 95.8418 53.952C95.8418 56.064 95.4258 58.048 94.5938 59.904C93.8258 61.696 92.7378 63.264 91.3298 64.608C89.9858 65.952 88.4178 67.008 86.6258 67.776C84.8338 68.48 82.9138 68.832 80.8658 68.832C78.8178 68.832 76.9298 68.48 75.2018 67.776C73.4738 67.072 71.9378 66.08 70.5938 64.8C69.1218 63.456 67.9698 61.856 67.1378 60C66.3058 58.144 65.8898 56.128 65.8898 53.952C65.8898 51.904 66.2418 49.984 66.9458 48.192C67.7138 46.4 68.7698 44.832 70.1138 43.488C71.3938 42.08 72.9618 40.992 74.8178 40.224C76.6738 39.456 78.6898 39.072 80.8658 39.072ZM132.138 72V68.256H124.65V-5.72205e-06H113.898V3.744H120.714V68.256H113.61V72H132.138ZM157.357 72V68.256H150.157V36H138.829V39.744H146.221V68.256H138.829V72H157.357ZM151.405 23.232C151.405 22.336 151.085 21.6 150.445 21.024C149.805 20.384 149.069 20.064 148.237 20.064C147.469 20.064 146.765 20.384 146.125 21.024C145.485 21.6 145.165 22.336 145.165 23.232C145.165 24.128 145.485 24.896 146.125 25.536C146.765 26.112 147.469 26.4 148.237 26.4C149.069 26.4 149.805 26.112 150.445 25.536C151.085 24.896 151.405 24.128 151.405 23.232ZM164.816 96H183.344V92.256H175.184V67.68C175.184 67.104 175.152 66.528 175.088 65.952C175.088 65.312 175.088 64.672 175.088 64.032C175.536 65.184 176.176 66.272 177.008 67.296C177.904 68.256 179.024 69.152 180.368 69.984C181.648 70.88 183.12 71.552 184.784 72C186.448 72.512 188.24 72.768 190.16 72.768C192.72 72.768 195.152 72.288 197.456 71.328C199.76 70.304 201.776 68.96 203.504 67.296C205.232 65.632 206.576 63.648 207.536 61.344C208.496 59.04 208.976 56.608 208.976 54.048C208.976 51.488 208.496 49.088 207.536 46.848C206.576 44.544 205.232 42.528 203.504 40.8C201.776 39.072 199.76 37.728 197.456 36.768C195.152 35.808 192.72 35.328 190.16 35.328C186.32 35.328 183.056 36.256 180.368 38.112C177.68 39.968 175.792 42.144 174.704 44.64C174.704 43.232 174.64 41.824 174.512 40.416C174.448 38.944 174.416 37.472 174.416 36H164.048V39.744H171.248V92.256H164.816V96ZM190.16 39.168C192.144 39.168 194.032 39.552 195.824 40.32C197.616 41.024 199.184 41.984 200.528 43.2C201.936 44.544 203.024 46.144 203.792 48C204.624 49.856 205.04 51.872 205.04 54.048C205.04 56.16 204.624 58.144 203.792 60C203.024 61.856 201.936 63.456 200.528 64.8C199.184 66.08 197.616 67.104 195.824 67.872C194.032 68.576 192.144 68.928 190.16 68.928C188.048 68.928 186.096 68.576 184.304 67.872C182.512 67.104 180.944 66.08 179.6 64.8C178.192 63.392 177.104 61.792 176.336 60C175.568 58.144 175.184 56.16 175.184 54.048C175.184 52 175.536 50.08 176.24 48.288C177.008 46.432 178.064 44.832 179.408 43.488C180.752 42.144 182.32 41.088 184.112 40.32C185.968 39.552 187.984 39.168 190.16 39.168ZM237.688 68.928C238.584 67.904 239.224 66.784 239.608 65.568C240.056 64.288 240.28 63.072 240.28 61.92C240.28 59.872 239.832 58.24 238.936 57.024C238.104 55.808 237.048 54.816 235.768 54.048C234.424 53.28 232.984 52.672 231.448 52.224C229.976 51.712 228.568 51.168 227.224 50.592C225.944 50.08 224.824 49.44 223.864 48.672C222.968 47.84 222.52 46.72 222.52 45.312C222.52 44.224 222.712 43.296 223.096 42.528C223.48 41.76 223.96 41.12 224.536 40.608C225.176 40.16 225.912 39.84 226.744 39.648C227.64 39.392 228.504 39.264 229.336 39.264C230.424 39.264 231.448 39.392 232.408 39.648C233.368 39.904 234.296 40.288 235.192 40.8V45.792H238.84V38.784C238.2 38.208 237.496 37.728 236.728 37.344C235.96 36.896 235.16 36.512 234.328 36.192C233.304 35.872 232.408 35.68 231.64 35.616C230.872 35.488 230.072 35.424 229.24 35.424C228.088 35.424 226.84 35.648 225.496 36.096C224.152 36.48 222.968 37.088 221.944 37.92C220.92 38.752 220.088 39.776 219.448 40.992C218.872 42.208 218.584 43.68 218.584 45.408C218.584 47.52 219 49.184 219.832 50.4C220.728 51.552 221.848 52.448 223.192 53.088C224.536 53.728 225.976 54.272 227.512 54.72C229.048 55.168 230.456 55.68 231.736 56.256C233.08 56.768 234.168 57.472 235 58.368C235.832 59.264 236.248 60.544 236.248 62.208C236.248 63.36 236.024 64.352 235.576 65.184C235.192 65.952 234.648 66.624 233.944 67.2C233.176 67.776 232.344 68.224 231.448 68.544C230.552 68.8 229.624 68.928 228.664 68.928C227.256 68.928 225.912 68.832 224.632 68.64C223.352 68.384 222.104 67.872 220.888 67.104V62.208H217.336V69.216C218.808 70.624 220.504 71.552 222.424 72C224.408 72.512 226.424 72.768 228.472 72.768C230.648 72.768 232.472 72.416 233.944 71.712C235.48 71.008 236.728 70.08 237.688 68.928ZM279.089 67.2C280.753 65.472 282.065 63.488 283.025 61.248C284.049 59.008 284.561 56.576 284.561 53.952C284.561 51.392 284.049 48.96 283.025 46.656C282.065 44.352 280.753 42.336 279.089 40.608C277.361 38.944 275.313 37.632 272.945 36.672C270.641 35.648 268.177 35.136 265.553 35.136C262.929 35.136 260.465 35.648 258.161 36.672C255.857 37.632 253.873 38.944 252.209 40.608C250.481 42.336 249.137 44.352 248.177 46.656C247.217 48.96 246.737 51.392 246.737 53.952C246.737 56.576 247.217 59.04 248.177 61.344C249.137 63.584 250.481 65.536 252.209 67.2C253.873 68.928 255.825 70.272 258.065 71.232C260.369 72.192 262.865 72.672 265.553 72.672C268.177 72.672 270.641 72.192 272.945 71.232C275.313 70.272 277.361 68.928 279.089 67.2ZM254.993 64.416C253.649 63.136 252.593 61.6 251.825 59.808C251.057 58.016 250.673 56.064 250.673 53.952C250.673 51.904 251.057 49.984 251.825 48.192C252.593 46.4 253.649 44.8 254.993 43.392C256.337 42.048 257.905 40.992 259.697 40.224C261.489 39.456 263.409 39.072 265.457 39.072C267.505 39.072 269.425 39.456 271.217 40.224C273.073 40.992 274.673 42.048 276.017 43.392C277.425 44.8 278.513 46.432 279.281 48.288C280.049 50.08 280.433 51.968 280.433 53.952C280.433 56.064 280.049 58.016 279.281 59.808C278.513 61.6 277.425 63.136 276.017 64.416C274.673 65.824 273.073 66.912 271.217 67.68C269.425 68.448 267.505 68.832 265.457 68.832C263.409 68.832 261.489 68.448 259.697 67.68C257.905 66.912 256.337 65.824 254.993 64.416Z" fill="black"/>
</svg>
